<svg viewBox="0 0 121 16" class="wordmark" fill="currentColor"><path d="M 110.577 15.289 C 110.185 15.289 109.877 15.229 109.628 15.111 C 109.379 14.992 109.177 14.814 109.023 14.589 L 100.236 2.221 C 100.13 2.043 100.082 1.901 100.082 1.758 C 100.082 1.616 100.13 1.474 100.225 1.355 C 100.319 1.225 100.438 1.118 100.592 1.011 C 100.746 0.917 100.912 0.834 101.09 0.786 C 101.268 0.739 101.446 0.703 101.624 0.703 C 101.802 0.703 101.968 0.739 102.157 0.798 C 102.347 0.857 102.478 0.976 102.584 1.118 L 110.648 12.68 L 118.628 1.118 C 118.806 0.845 119.091 0.703 119.506 0.703 C 119.921 0.703 119.85 0.727 120.028 0.786 C 120.206 0.834 120.36 0.917 120.502 1.011 C 120.644 1.106 120.763 1.225 120.858 1.355 C 120.953 1.486 121 1.628 121 1.782 C 121 1.936 120.953 2.091 120.846 2.221 L 112.166 14.601 C 112.012 14.826 111.798 15.004 111.549 15.123 C 111.288 15.229 110.968 15.289 110.577 15.289 Z M 95.624 14.352 C 95.624 14.731 95.505 14.992 95.28 15.111 C 95.054 15.229 94.722 15.289 94.284 15.289 C 93.845 15.289 93.537 15.229 93.299 15.111 C 93.074 14.992 92.956 14.743 92.956 14.352 L 92.956 1.64 C 92.956 1.26 93.074 1 93.299 0.881 C 93.525 0.762 93.857 0.703 94.284 0.703 C 94.711 0.703 95.054 0.762 95.28 0.881 C 95.505 1 95.624 1.249 95.624 1.64 Z M 81.714 2.932 L 81.714 14.352 C 81.714 14.731 81.596 14.992 81.37 15.111 C 81.145 15.229 80.813 15.289 80.374 15.289 C 79.935 15.289 79.627 15.229 79.39 15.111 C 79.165 14.992 79.046 14.743 79.046 14.352 L 79.046 2.932 L 73.046 2.932 C 72.726 2.932 72.512 2.838 72.417 2.66 C 72.322 2.482 72.263 2.209 72.263 1.853 C 72.263 1.498 72.311 1.225 72.417 1.047 C 72.512 0.869 72.726 0.774 73.046 0.774 L 87.738 0.774 C 88.058 0.774 88.272 0.869 88.366 1.047 C 88.461 1.225 88.521 1.498 88.521 1.853 C 88.521 2.209 88.473 2.482 88.366 2.66 C 88.272 2.838 88.058 2.932 87.738 2.932 Z M 62.409 13.059 C 63.583 13.059 64.437 12.905 64.97 12.597 C 65.504 12.289 65.765 11.933 65.765 11.506 L 65.765 4.486 C 65.765 4.047 65.504 3.68 64.97 3.383 C 64.437 3.087 63.583 2.932 62.409 2.932 L 56.753 2.932 C 55.579 2.932 54.725 3.087 54.191 3.383 C 53.658 3.68 53.397 4.047 53.397 4.486 L 53.397 11.506 C 53.397 11.933 53.658 12.3 54.191 12.597 C 54.725 12.905 55.579 13.059 56.753 13.059 Z M 56.682 15.206 C 52.745 15.206 50.776 13.972 50.776 11.506 L 50.776 4.486 C 50.776 2.019 52.745 0.786 56.682 0.786 L 62.492 0.786 C 66.429 0.786 68.398 2.019 68.398 4.486 L 68.398 11.506 C 68.398 13.972 66.429 15.206 62.492 15.206 Z M 42.748 1.521 C 42.962 1.272 43.199 1.094 43.46 0.988 C 43.721 0.881 44.005 0.834 44.326 0.834 C 45.31 0.834 45.808 1.284 45.808 2.185 L 45.808 14.364 C 45.808 14.743 45.689 15.004 45.464 15.123 C 45.239 15.241 44.907 15.3 44.468 15.3 C 44.029 15.3 43.697 15.241 43.472 15.123 C 43.247 15.004 43.128 14.755 43.128 14.364 L 43.128 4.925 L 35.159 14.53 C 34.934 14.79 34.697 14.992 34.46 15.111 C 34.223 15.229 33.926 15.289 33.582 15.289 C 33.238 15.289 32.871 15.229 32.61 15.111 C 32.349 14.992 32.112 14.802 31.898 14.53 L 23.906 4.925 L 23.906 14.352 C 23.906 14.731 23.787 14.992 23.562 15.111 C 23.337 15.229 23.005 15.289 22.566 15.289 C 22.127 15.289 21.819 15.229 21.582 15.111 C 21.356 14.992 21.238 14.743 21.238 14.352 L 21.238 2.174 C 21.238 1.272 21.724 0.822 22.696 0.822 C 23.669 0.822 23.87 1.059 24.274 1.521 L 33.464 12.561 Z M 2.632 9.182 L 2.632 11.506 C 2.632 11.933 2.893 12.3 3.427 12.597 C 3.961 12.905 4.814 13.059 5.988 13.059 L 15.534 13.059 C 15.854 13.059 16.068 13.154 16.163 13.332 C 16.257 13.51 16.317 13.783 16.317 14.138 C 16.317 14.494 16.269 14.743 16.163 14.933 C 16.068 15.123 15.854 15.206 15.534 15.206 L 5.905 15.206 C 1.968 15.206 0 13.972 0 11.506 L 0 4.486 C 0 2.019 1.968 0.786 5.905 0.786 L 15.546 0.786 C 15.854 0.786 16.056 0.881 16.151 1.059 C 16.246 1.237 16.305 1.509 16.305 1.865 C 16.305 2.221 16.257 2.494 16.151 2.672 C 16.056 2.849 15.842 2.944 15.546 2.944 L 5.988 2.944 C 4.814 2.944 3.961 3.098 3.427 3.395 C 2.893 3.691 2.632 4.059 2.632 4.498 L 2.632 7.047 L 15.593 7.047 C 15.914 7.047 16.127 7.142 16.222 7.32 C 16.317 7.498 16.376 7.771 16.376 8.126 C 16.376 8.482 16.329 8.755 16.222 8.933 C 16.127 9.111 15.914 9.205 15.593 9.205 L 2.632 9.205 Z" fill="var(--token-818a283b-450e-452c-a8af-6b81d42f4181, rgb(0, 0, 0))"></path></svg>